<?xml version="1.0" standalone="no"?>
<!DOCTYPE svg PUBLIC "-//W3C//DTD SVG 20010904//EN"
 "http://www.w3.org/TR/2001/REC-SVG-20010904/DTD/svg10.dtd">
<svg version="1.0" xmlns="http://www.w3.org/2000/svg"
 width="2382.000000pt" height="2382.000000pt" viewBox="0 0 2382.000000 2382.000000"
 preserveAspectRatio="xMidYMid meet">
<metadata>
Created by potrace 1.11, written by Peter Selinger 2001-2013
</metadata>
<g transform="translate(0.000000,2382.000000) scale(0.100000,-0.100000)"
fill="#000000" stroke="none">
<path d="M11950 20559 c-396 -39 -567 -68 -930 -159 -151 -38 -320 -80 -375
-94 -163 -39 -623 -215 -934 -356 -279 -126 -691 -351 -936 -511 -221 -144
-255 -159 -255 -109 0 32 27 79 81 141 96 112 108 159 43 159 -19 0 -34 5 -34
10 0 16 -24 12 -86 -16 -33 -14 -87 -36 -121 -49 -56 -20 -63 -21 -77 -7 -14
14 -20 14 -58 -8 -24 -13 -74 -44 -113 -70 -38 -26 -85 -54 -104 -63 -42 -21
-222 -150 -366 -263 -60 -47 -161 -124 -222 -171 -62 -47 -113 -89 -113 -94 0
-5 -4 -8 -9 -6 -7 2 -68 -49 -162 -134 -14 -13 -61 -55 -105 -94 -43 -38 -115
-105 -159 -147 -45 -43 -99 -89 -121 -104 -21 -15 -75 -53 -120 -85 -44 -33
-88 -59 -96 -59 -15 0 -102 -55 -253 -160 -33 -23 -83 -63 -112 -90 -28 -27
-68 -60 -90 -73 -54 -35 -275 -254 -370 -367 -44 -52 -96 -112 -116 -133 -87
-90 -314 -410 -364 -512 -11 -22 -72 -132 -135 -245 -63 -113 -142 -259 -175
-325 -179 -356 -224 -450 -254 -530 -34 -90 -109 -205 -135 -205 -23 0 -17 45
22 169 20 64 45 144 55 179 l18 63 -21 -7 c-16 -5 -20 -3 -15 9 9 23 25 119
37 219 12 103 77 273 185 488 54 108 129 275 193 429 3 9 1 12 -6 7 -20 -12
-14 13 15 61 21 36 23 47 12 53 -20 13 -1 60 80 205 88 156 141 261 141 280 0
27 -27 16 -69 -27 -88 -93 -124 -136 -180 -218 -195 -288 -294 -422 -340 -464
-17 -16 -21 -16 -21 -4 0 9 -7 21 -16 29 -13 10 -19 8 -40 -14 -30 -33 -38
-34 -31 -4 6 28 -5 59 -18 49 -17 -12 -139 -154 -186 -217 -129 -171 -417
-659 -449 -760 -7 -22 -23 -52 -36 -66 -26 -27 -78 -140 -168 -362 -54 -134
-109 -307 -161 -502 -14 -55 -44 -154 -65 -220 -53 -160 -83 -290 -124 -535
-47 -275 -72 -473 -86 -660 -6 -85 -22 -236 -35 -335 -35 -268 -48 -435 -75
-1015 -6 -118 -16 -282 -24 -365 -7 -82 -14 -168 -14 -190 0 -22 -5 -105 -11
-185 -14 -213 -13 -422 4 -520 8 -47 21 -161 30 -255 18 -202 13 -175 81 -450
29 -121 62 -269 73 -330 12 -60 29 -135 40 -165 10 -31 37 -123 60 -205 60
-212 86 -287 142 -396 27 -53 49 -100 49 -106 0 -6 27 -73 59 -149 33 -76 83
-195 111 -264 70 -168 79 -187 117 -245 18 -28 70 -129 116 -225 86 -180 242
-471 295 -550 17 -25 51 -84 76 -132 51 -97 78 -141 281 -448 247 -373 496
-693 819 -1050 72 -80 483 -488 612 -607 60 -55 134 -121 166 -145 31 -23 107
-86 170 -139 234 -198 814 -619 918 -667 36 -16 97 -53 135 -82 39 -29 108
-75 155 -102 47 -28 117 -69 155 -94 39 -24 77 -44 85 -44 8 0 46 -18 83 -39
37 -22 77 -43 89 -47 13 -3 64 -28 113 -55 115 -62 411 -199 450 -208 17 -5
62 -22 101 -39 40 -18 101 -39 137 -47 35 -8 129 -46 208 -85 129 -62 290
-123 524 -197 485 -153 626 -189 976 -248 85 -14 190 -34 234 -45 83 -20 332
-53 345 -45 4 3 77 -2 161 -11 178 -18 580 -31 779 -24 25 1 108 -2 185 -5 99
-4 172 -2 249 8 71 10 118 12 134 6 31 -12 189 -12 197 0 9 15 97 29 250 41
77 6 217 22 311 35 94 13 234 29 310 35 99 8 149 17 174 30 19 10 53 21 75 25
22 3 49 10 60 15 25 10 285 70 304 70 11 0 11 -3 1 -15 -7 -9 -11 -17 -9 -19
13 -11 574 142 639 174 19 9 82 32 140 50 58 17 143 47 190 65 521 204 650
259 887 377 105 52 156 84 197 123 30 29 78 63 108 76 74 33 197 98 231 122
16 11 92 52 170 91 138 70 420 251 602 386 50 37 100 73 113 81 12 8 20 19 18
24 -6 17 16 38 57 58 21 10 62 39 90 65 29 26 93 81 142 122 50 41 95 79 101
85 6 5 64 59 130 120 116 107 485 466 508 494 6 7 43 48 82 90 39 42 88 101
108 131 20 30 72 91 115 135 43 44 97 109 121 145 24 36 94 117 155 180 109
112 255 285 308 365 15 22 27 51 27 65 0 17 43 91 116 201 63 96 124 191 135
211 11 21 50 82 88 135 38 54 90 145 115 203 25 58 59 130 75 160 16 30 32 68
35 84 4 17 45 106 91 198 46 93 91 192 101 221 9 29 32 82 50 119 18 36 40 98
48 136 8 39 30 104 50 146 19 42 38 101 42 133 4 31 20 93 37 137 22 60 30
100 32 156 1 41 12 110 24 153 12 43 28 120 35 170 8 51 22 134 32 185 16 86
14 124 -5 93 -5 -7 -18 -57 -30 -110 -12 -53 -28 -118 -36 -146 -8 -27 -17
-61 -21 -75 -4 -14 -9 -34 -10 -45 -16 -118 -23 -154 -34 -180 l-14 -30 -7 55
c-4 30 -7 99 -8 153 -1 53 -3 97 -6 97 -3 0 -22 -7 -42 -15 -63 -27 -67 -24
-60 53 4 49 16 89 41 143 20 42 36 84 36 93 0 10 9 52 19 94 43 170 82 386 94
523 22 256 6 621 -28 656 -8 8 -15 21 -15 29 0 8 -9 40 -20 72 -13 35 -24 102
-30 177 -4 66 -14 143 -20 170 -6 28 -13 81 -15 118 -5 83 -34 171 -85 257
-21 36 -51 102 -67 147 -26 77 -30 83 -55 83 -22 0 -26 4 -21 18 3 9 14 26 24
37 42 48 45 96 40 560 -2 192 -7 248 -37 441 -37 245 -37 243 -123 609 -67
283 -131 523 -191 710 -64 199 -92 313 -85 345 4 17 11 30 16 30 5 0 9 9 9 19
0 36 19 32 45 -8 44 -70 116 -273 201 -566 31 -104 60 -194 65 -200 37 -37
-42 387 -120 646 -27 91 -59 189 -71 219 -11 30 -23 83 -26 117 -14 179 -238
682 -490 1104 -35 59 -64 109 -64 113 0 18 -171 280 -241 370 -22 27 -39 52
-39 57 0 5 -25 46 -55 93 -31 47 -63 102 -71 123 -16 38 -111 166 -232 312
-34 42 -76 99 -93 126 -16 28 -42 67 -57 88 -16 21 -34 58 -41 83 -22 73 -94
163 -316 392 -71 74 -172 168 -223 209 -51 41 -103 85 -115 97 -77 75 -276
231 -412 323 -169 114 -403 263 -569 362 -192 114 -623 335 -736 378 -35 14
-76 31 -90 39 -24 13 -70 33 -310 134 -213 90 -599 210 -674 210 -17 0 -60 9
-96 21 -35 11 -119 33 -185 50 -66 16 -125 36 -130 44 -14 17 -150 80 -196 90
-19 4 -36 10 -39 14 -25 31 -292 101 -520 136 -66 10 -180 42 -204 58 -51 33
-138 48 -466 82 -166 17 -231 31 -307 69 -26 13 -84 29 -128 35 -44 7 -125 18
-180 27 -55 8 -154 19 -220 24 -175 15 -206 20 -251 41 -44 21 -128 23 -284 8z
m2029 -1890 c107 -11 197 -22 200 -24 4 -2 31 -6 61 -10 70 -8 406 -70 483
-89 52 -12 57 -12 55 3 -2 9 3 15 12 14 16 -2 159 -39 277 -71 42 -12 87 -18
110 -15 31 4 86 -13 287 -87 136 -50 258 -97 270 -104 11 -8 50 -24 85 -36 35
-12 142 -62 239 -111 96 -48 191 -94 211 -100 49 -16 142 -67 248 -135 48 -32
118 -74 154 -93 121 -66 688 -462 785 -548 111 -99 275 -233 285 -233 5 0 19
-12 32 -27 63 -76 117 -128 165 -160 29 -20 90 -76 135 -126 45 -50 105 -114
132 -142 28 -27 74 -79 103 -113 29 -35 88 -103 133 -151 44 -48 96 -112 115
-141 19 -29 65 -92 102 -139 37 -47 88 -115 114 -151 25 -36 58 -76 73 -90 15
-14 51 -65 80 -115 30 -49 67 -103 83 -120 16 -16 50 -62 75 -100 61 -95 277
-539 337 -695 27 -69 67 -167 90 -218 91 -208 204 -601 310 -1076 22 -99 49
-201 59 -225 17 -41 19 -43 30 -23 15 28 14 312 -1 420 -10 73 -9 84 6 100 15
18 14 28 -14 158 -35 158 -71 313 -106 458 -18 70 -22 102 -14 110 8 8 12 4
17 -13 3 -12 32 -100 65 -194 119 -346 189 -619 243 -952 14 -88 32 -191 40
-230 17 -84 30 -222 50 -532 8 -128 17 -243 20 -256 5 -17 2 -26 -10 -30 -8
-4 -24 -27 -35 -52 -11 -25 -23 -45 -28 -45 -13 0 -30 -42 -37 -96 -4 -27 -11
-53 -15 -59 -13 -16 -21 -128 -24 -330 -2 -121 -9 -217 -19 -265 -30 -143 -55
-396 -39 -386 31 19 24 -174 -13 -349 -14 -63 -39 -142 -59 -185 -48 -103 -67
-178 -71 -288 -3 -95 -19 -214 -36 -267 -15 -49 -59 -268 -59 -295 0 -13 -33
-90 -74 -170 -41 -80 -81 -172 -89 -206 -42 -165 -258 -520 -232 -380 5 25 3
35 -9 39 -19 8 -20 41 -4 153 10 68 9 88 -2 111 -7 15 -14 45 -15 65 0 21 -4
40 -7 44 -13 12 -70 -9 -104 -38 -27 -24 -47 -32 -88 -35 -51 -4 -55 -3 -75
26 -12 17 -29 31 -37 31 -8 0 -14 9 -14 20 0 25 -29 40 -79 40 -36 0 -44 4
-61 33 -11 17 -21 36 -23 41 -2 5 -12 9 -22 10 -11 2 -28 6 -38 10 -34 16 -54
-4 -220 -224 -97 -128 -182 -209 -304 -290 -111 -73 -197 -164 -281 -295 -160
-250 -243 -367 -303 -425 -188 -185 -430 -413 -479 -450 -78 -60 -146 -127
-188 -185 -20 -27 -49 -61 -64 -75 -16 -14 -75 -79 -131 -145 -67 -78 -145
-155 -227 -222 -69 -57 -154 -127 -190 -157 -85 -70 -225 -163 -267 -177 -39
-13 -63 0 -63 35 -1 26 -17 49 -47 65 -12 6 -20 17 -17 25 3 7 73 80 156 162
326 322 511 511 540 554 18 25 37 49 45 53 16 10 133 159 162 207 11 19 21 43
21 53 0 24 -33 22 -56 -4 -28 -31 -139 -109 -155 -109 -8 0 -21 15 -29 33 -15
31 -17 32 -70 29 -58 -3 -139 -38 -253 -109 -44 -27 -70 -37 -105 -37 -54 -2
-154 -52 -287 -146 -44 -31 -165 -114 -270 -184 -104 -71 -199 -136 -210 -145
-65 -57 -611 -344 -748 -395 -111 -41 -130 -45 -232 -56 -48 -5 -112 -22 -160
-40 -44 -17 -98 -33 -120 -34 -22 -2 -74 -13 -115 -25 -105 -31 -409 -110
-505 -131 -44 -10 -91 -23 -105 -28 -15 -6 -72 -17 -128 -26 -56 -9 -112 -21
-124 -26 -13 -5 -97 -19 -188 -31 -203 -27 -717 -38 -870 -19 -52 6 -165 15
-250 20 -85 5 -234 23 -330 39 -96 16 -200 32 -230 36 -109 13 -321 65 -387
94 -37 16 -113 42 -168 59 -356 106 -630 205 -711 257 -30 20 -125 70 -210
111 -194 94 -274 168 -286 261 -7 52 5 69 56 76 46 7 48 9 40 30 -7 18 -146
127 -162 127 -6 0 -12 4 -14 9 -1 4 -43 37 -93 71 -49 34 -119 86 -155 114
-36 29 -103 79 -150 112 -51 35 -151 125 -250 225 -91 92 -202 199 -247 238
-82 71 -362 405 -465 554 -26 39 -60 84 -74 100 -121 135 -553 847 -624 1027
-10 26 -57 124 -103 217 -131 260 -229 521 -346 918 -99 339 -122 475 -91 540
10 19 36 41 72 60 120 64 174 144 232 345 21 72 70 409 96 652 11 106 29 261
39 343 11 83 23 179 26 215 3 36 10 88 15 115 5 28 19 120 30 205 36 273 51
345 133 655 73 273 184 577 350 960 56 131 179 370 242 470 34 55 74 125 88
155 15 31 47 83 73 115 25 33 64 93 86 133 22 40 61 96 87 125 26 29 82 99
126 157 158 211 260 308 389 369 64 30 133 88 156 130 6 12 9 21 6 21 -17 0
-70 -32 -130 -77 -37 -29 -70 -53 -72 -53 -11 0 -1 20 20 41 13 13 46 50 73
82 28 31 68 71 89 88 22 17 59 49 84 72 91 85 210 186 289 246 44 34 81 65 81
68 0 3 -13 3 -30 0 -24 -5 -30 -3 -30 11 0 23 160 175 224 212 28 17 92 59
141 93 392 274 985 552 1530 718 94 28 177 55 187 60 32 17 365 98 488 119 69
12 150 28 181 36 46 11 160 14 610 14 l554 0 65 25 c74 29 85 28 419 -6z"/>
<path d="M13925 16459 c-1110 -79 -2069 -578 -2725 -1419 -443 -569 -711
-1238 -780 -1950 -74 -771 79 -1503 459 -2199 25 -46 41 -87 41 -108 0 -19
-136 -438 -301 -931 -166 -493 -314 -936 -329 -983 l-27 -86 37 8 c34 8 1365
432 1802 575 108 35 209 64 224 64 16 0 95 -32 178 -71 178 -84 350 -154 501
-202 869 -280 1880 -219 2705 163 180 84 321 163 505 285 293 195 513 387 771
676 138 154 331 433 448 645 411 748 547 1617 390 2489 -129 715 -444 1339
-938 1856 -174 182 -316 308 -523 465 -716 542 -1541 786 -2438 723z m535
-624 c402 -43 751 -146 1102 -324 124 -63 397 -227 418 -251 3 -3 21 -17 40
-30 42 -30 48 -34 180 -148 525 -449 889 -1087 1015 -1774 45 -247 57 -416 52
-698 -4 -188 -10 -290 -26 -388 -44 -285 -123 -546 -245 -807 -25 -52 -43 -95
-40 -95 3 0 -4 -10 -16 -22 -11 -12 -20 -25 -20 -30 0 -12 -106 -184 -178
-288 -81 -118 -191 -255 -282 -353 -38 -41 -67 -77 -65 -81 3 -3 2 -4 -2 -1
-10 8 -133 -117 -126 -129 3 -6 3 -8 -1 -4 -4 3 -56 -35 -114 -86 -165 -142
-393 -298 -546 -373 -30 -14 -52 -31 -49 -36 3 -6 1 -7 -4 -4 -6 4 -37 -6 -69
-22 -256 -124 -590 -220 -934 -268 -158 -22 -653 -25 -800 -5 -377 52 -754
174 -1069 345 -63 34 -116 60 -118 57 -1 -3 -8 3 -15 12 -21 27 -108 68 -146
68 -19 0 -102 -22 -186 -49 -634 -207 -961 -311 -978 -311 -6 0 -7 7 -3 18 11
27 346 1013 357 1052 19 63 4 103 -83 238 -199 306 -355 675 -427 1012 -95
445 -84 955 32 1433 103 422 281 790 556 1147 158 204 478 500 730 673 416
285 883 465 1340 516 52 6 109 13 125 15 87 10 474 4 595 -9z"/>
<path d="M12893 14411 c-33 -4 -76 -14 -95 -21 -47 -19 -140 -89 -133 -101 4
-5 2 -8 -4 -7 -16 4 -82 -73 -150 -173 -96 -143 -156 -312 -168 -479 -8 -126
29 -350 88 -515 32 -91 107 -245 119 -245 6 0 9 -4 6 -9 -12 -19 254 -412 421
-621 124 -155 390 -430 525 -542 389 -321 765 -516 1268 -656 219 -61 306 -75
440 -70 95 4 133 11 215 38 118 39 276 111 304 139 12 12 21 18 21 15 0 -8 51
30 96 73 133 125 194 279 197 494 2 104 0 119 -18 139 -21 24 -255 145 -255
133 0 -5 -4 -3 -8 4 -4 6 -50 31 -102 56 -52 25 -158 75 -235 112 -291 139
-295 140 -369 62 -28 -29 -112 -128 -186 -220 -102 -126 -145 -172 -177 -188
-53 -26 -75 -22 -213 39 -452 199 -809 505 -1097 940 -76 114 -78 119 -78 178
0 51 4 66 27 95 69 85 178 230 218 287 59 85 59 126 -3 272 -25 58 -86 206
-138 330 -51 124 -95 227 -98 230 -3 3 -8 14 -9 25 -11 61 -81 159 -125 175
-41 14 -204 20 -284 11z"/>
<path d="M19897 10863 c-2 -5 -3 -15 -2 -23 0 -8 -2 -17 -5 -20 -3 -3 -11 -27
-17 -55 -10 -47 -10 -49 5 -26 9 13 17 29 18 35 13 69 16 96 11 96 -3 0 -8 -3
-10 -7z"/>
</g>
</svg>
